<?xml version="1.0" encoding="utf-8"?>
<!-- Generator: Adobe Illustrator 27.5.0, SVG Export Plug-In . SVG Version: 6.00 Build 0)  -->
<svg version="1.1" id="Camada_1" xmlns="http://www.w3.org/2000/svg" xmlns:xlink="http://www.w3.org/1999/xlink" x="0px" y="0px"
	 viewBox="0 0 79 56.3" style="enable-background:new 0 0 79 56.3;" xml:space="preserve">
<style type="text/css">
	.st0{fill:#FFFFFF;}
</style>
<g id="Layer_1">
</g>
<g id="Layer_2">
	<g>
		<path class="st0" d="M67.7,8.1H41.6V7.4c0-3.4-2.7-6.1-6.1-6.1H21.4c-3.4,0-6.1,2.7-6.1,6.1v0.7h-3.8c-5.6,0-10.2,4.6-10.2,10.2
			v26.5c0,5.6,4.6,10.2,10.2,10.2h56.3c5.6,0,10.2-4.6,10.2-10.2V18.3C77.9,12.7,73.3,8.1,67.7,8.1z M14.7,32.2
			c6.4,0.7,11.5,5.9,11.9,12.5C20.1,43.9,15.1,38.7,14.7,32.2z M73.8,44.7c0,3.4-2.7,6.1-6.1,6.1H29.3l0-3.5
			c8.2-0.7,14.7-7.6,14.7-16c0-0.2,0-0.3,0-0.5l-0.1-1.5h-1.3c-6.5,0-12.2,4-14.7,9.6c-2.5-5.6-8.1-9.6-14.7-9.6H12l-0.1,1.5
			c0,0.2,0,0.3,0,0.5c0,8.4,6.5,15.3,14.7,16l0,3.5H11.4c-3.4,0-6.1-2.7-6.1-6.1V18.3c0-3.4,2.7-6.1,6.1-6.1h8L19.4,10
			c0-0.1,0-0.1,0-0.2V7.4c0-1.1,0.9-2,2-2h14.1c1.1,0,2,0.9,2,2v2.4l-0.1,2.3h30.4c3.4,0,6.1,2.7,6.1,6.1L73.8,44.7L73.8,44.7z
			 M29.3,44.6c0.4-6.5,5.5-11.8,11.9-12.5C40.9,38.7,35.8,43.9,29.3,44.6z"/>
		<path class="st0" d="M28,14.7l-1,1c-2.3,2.4-3.6,5.5-3.6,8.9c0,3.3,1.3,6.5,3.6,8.9l1,1l1-1c2.3-2.4,3.6-5.5,3.6-8.9
			c0-3.3-1.3-6.5-3.6-8.9L28,14.7z M28,30.4c-1.2-1.7-1.9-3.7-1.9-5.8s0.7-4.1,1.9-5.8c1.2,1.7,1.9,3.7,1.9,5.8
			C29.8,26.7,29.2,28.7,28,30.4z"/>
		<path class="st0" d="M63.4,15.3H50.2c-0.8,0-1.4,0.6-1.4,1.4s0.6,1.4,1.4,1.4h13.1c0.4,0,4.3,0.4,4.2,4v11.9
			c0,0.8,0.6,1.4,1.4,1.4l0,0c0.8,0,1.4-0.6,1.4-1.4l0-11.8C70.4,17.1,65.9,15.5,63.4,15.3z"/>
	</g>
</g>
</svg>
